<?xml version="1.0" encoding="utf-8"?>
<!-- Generator: Adobe Illustrator 17.0.2, SVG Export Plug-In . SVG Version: 6.00 Build 0)  -->
<!DOCTYPE svg PUBLIC "-//W3C//DTD SVG 1.1//EN" "http://www.w3.org/Graphics/SVG/1.1/DTD/svg11.dtd">
<svg version="1.1" id="Layer_1" xmlns="http://www.w3.org/2000/svg" xmlns:xlink="http://www.w3.org/1999/xlink" x="0px" y="0px"
	 width="464.775px" height="437.338px" viewBox="0 0 464.775 437.338" enable-background="new 0 0 464.775 437.338"
	 xml:space="preserve">
<path fill="#EFD959" d="M364.575,175.291c0.33-2.36,0.44-4.78,0.3-7.24l-2.22-38.88c-1.14-19.99-18.27-35.28-38.27-34.14l-9.65,0.55
	c0.34-9.69,1.4-19.33,3.73-28.71c1.63-6.55,5.81-15.7,12.52-18.79c3.35-1.55,8.12,0.84,11.82-1.16c3.75-2.02,4.97-6.54,6-10.36
	c2.26-8.37,4.09-18.43,0.92-26.81c-1.54-4.08-5.19-7.7-9.39-9.12c-0.04-0.02-43.29-14.45-40.1,95.78l-16.21,0.93l-5.16-51.55
	c-0.61-6.09-6.04-10.53-12.13-9.92s-10.53,6.04-9.92,12.13l5.07,50.66c-19.02,2.12-33.26,18.78-32.15,38.1l1.24,21.68
	c-86.87,10.07-154.86,59.03-165.9,120.34l-30.33,3.73c-0.5-0.51-1.05-0.97-1.64-1.39c3.6-14.16,6.23-36.38-0.44-48.19
	c-3.64-6.45-9.59-9.37-17.22-8.43c-7.83,0.97-11.26,5.14-12.77,8.48c-5.68,12.61,6.06,35.86,14.04,49.3
	c-0.46,0.44-0.91,0.91-1.31,1.43c-2.14,2.73-3.08,6.13-2.65,9.56c0.45,3.69,2.43,6.86,5.26,8.91c-3.51,14.19-5.96,35.94,0.6,47.57
	c3.2,5.66,8.17,8.59,14.5,8.59c0.88,0,1.79-0.06,2.73-0.17c7.82-0.96,11.25-5.14,12.76-8.47c5.62-12.48-5.81-35.38-13.79-48.88
	c0.36-0.36,0.71-0.74,1.02-1.15c0.33-0.41,0.61-0.84,0.88-1.28l26.8-3.3c-0.01,0.42-0.02,0.84-0.02,1.26
	c0,77.22,89.83,139.81,200.64,139.81s200.64-62.59,200.64-139.81C464.775,244.631,424.475,199.481,364.575,175.291z
	 M269.275,242.821c21.11,0,38.23,17.12,38.23,38.23c0,21.11-17.12,38.23-38.23,38.23c-21.12,0-38.23-17.12-38.23-38.23
	C231.045,259.941,248.155,242.821,269.275,242.821z M126.915,281.051c0-21.11,17.12-38.23,38.23-38.23
	c21.12,0,38.23,17.12,38.23,38.23s-17.11,38.23-38.23,38.23C144.035,319.281,126.915,302.161,126.915,281.051z M372.475,319.281
	c-21.12,0-38.23-17.12-38.23-38.23s17.11-38.23,38.23-38.23c21.11,0,38.23,17.12,38.23,38.23S393.585,319.281,372.475,319.281z"/>
</svg>
