<?xml version="1.0" encoding="utf-8"?>
<!-- Generator: Adobe Illustrator 17.0.2, SVG Export Plug-In . SVG Version: 6.00 Build 0)  -->
<!DOCTYPE svg PUBLIC "-//W3C//DTD SVG 1.1//EN" "http://www.w3.org/Graphics/SVG/1.1/DTD/svg11.dtd">
<svg version="1.1" id="Layer_1" xmlns="http://www.w3.org/2000/svg" xmlns:xlink="http://www.w3.org/1999/xlink" x="0px" y="0px"
	 width="35.281px" height="30.487px" viewBox="0 0 35.281 30.487" enable-background="new 0 0 35.281 30.487" xml:space="preserve">
<path fill="#458ECC" d="M15.879,31.763c0,0-5.995-20.744-13.285-12.044C-4.555,28.251,14.59,28.778,15.879,31.763z"/>
<path fill="#458ECC" d="M34.687,19.719c-7.29-8.7-13.285,12.044-13.285,12.044C22.691,28.778,41.836,28.251,34.687,19.719z"/>
<path fill="#458ECC" d="M15.767,20.606c0,0,1.282-12.695-4.632-9.53C5.335,14.179,15.717,18.685,15.767,20.606z"/>
<path fill="#458ECC" d="M29.279,10.572c-4.848-4.636-7.019,7.937-7.019,7.937C22.824,16.672,34.034,15.117,29.279,10.572z"/>
<path fill="#458ECC" d="M19.514,11.864c0,0,5.329-11.593-1.291-10.517C11.729,2.402,20.09,10.031,19.514,11.864z"/>
</svg>
